<mxfile host="app.diagrams.net" agent="Mozilla/5.0 (Windows NT 10.0; Win64; x64) AppleWebKit/537.36 (KHTML, like Gecko) Chrome/140.0.0.0 Safari/537.36" version="28.1.2">
  <diagram name="Strona-1" id="_6M75ooqKnDLT4tYcyIA">
    <mxGraphModel dx="784" dy="1108" grid="1" gridSize="10" guides="1" tooltips="1" connect="1" arrows="1" fold="1" page="1" pageScale="1" pageWidth="827" pageHeight="1169" math="0" shadow="0">
      <root>
        <mxCell id="0" />
        <mxCell id="1" parent="0" />
        <mxCell id="-K2eB1AA9z9G4rPxQfK5-10" value="sources" style="swimlane;childLayout=stackLayout;horizontal=1;startSize=50;horizontalStack=0;rounded=1;fontSize=14;fontStyle=0;strokeWidth=2;resizeParent=0;resizeLast=1;shadow=0;dashed=0;align=center;arcSize=4;whiteSpace=wrap;html=1;" parent="1" vertex="1">
          <mxGeometry x="40" y="40" width="160" height="110" as="geometry" />
        </mxCell>
        <mxCell id="-K2eB1AA9z9G4rPxQfK5-11" value="# * id&lt;div&gt;&amp;nbsp; &amp;nbsp;* name&lt;/div&gt;&lt;div&gt;&amp;nbsp; &amp;nbsp;* base_url&lt;/div&gt;" style="align=left;strokeColor=none;fillColor=none;spacingLeft=4;spacingRight=4;fontSize=12;verticalAlign=top;resizable=0;rotatable=0;part=1;html=1;whiteSpace=wrap;" parent="-K2eB1AA9z9G4rPxQfK5-10" vertex="1">
          <mxGeometry y="50" width="160" height="60" as="geometry" />
        </mxCell>
        <mxCell id="-K2eB1AA9z9G4rPxQfK5-12" value="companies" style="swimlane;childLayout=stackLayout;horizontal=1;startSize=50;horizontalStack=0;rounded=1;fontSize=14;fontStyle=0;strokeWidth=2;resizeParent=0;resizeLast=1;shadow=0;dashed=0;align=center;arcSize=4;whiteSpace=wrap;html=1;" parent="1" vertex="1">
          <mxGeometry x="315" y="40" width="160" height="110" as="geometry" />
        </mxCell>
        <mxCell id="-K2eB1AA9z9G4rPxQfK5-13" value="# * id&lt;div&gt;&amp;nbsp; &amp;nbsp;* name&lt;/div&gt;&lt;div&gt;&amp;nbsp; &amp;nbsp;o logo_url&lt;/div&gt;" style="align=left;strokeColor=none;fillColor=none;spacingLeft=4;spacingRight=4;fontSize=12;verticalAlign=top;resizable=0;rotatable=0;part=1;html=1;whiteSpace=wrap;" parent="-K2eB1AA9z9G4rPxQfK5-12" vertex="1">
          <mxGeometry y="50" width="160" height="60" as="geometry" />
        </mxCell>
        <mxCell id="-K2eB1AA9z9G4rPxQfK5-14" value="currencies" style="swimlane;childLayout=stackLayout;horizontal=1;startSize=50;horizontalStack=0;rounded=1;fontSize=14;fontStyle=0;strokeWidth=2;resizeParent=0;resizeLast=1;shadow=0;dashed=0;align=center;arcSize=4;whiteSpace=wrap;html=1;" parent="1" vertex="1">
          <mxGeometry x="40" y="360" width="160" height="90" as="geometry" />
        </mxCell>
        <mxCell id="-K2eB1AA9z9G4rPxQfK5-15" value="# * id&lt;div&gt;&amp;nbsp; &amp;nbsp;* currency&lt;/div&gt;" style="align=left;strokeColor=none;fillColor=none;spacingLeft=4;spacingRight=4;fontSize=12;verticalAlign=top;resizable=0;rotatable=0;part=1;html=1;whiteSpace=wrap;" parent="-K2eB1AA9z9G4rPxQfK5-14" vertex="1">
          <mxGeometry y="50" width="160" height="40" as="geometry" />
        </mxCell>
        <mxCell id="-K2eB1AA9z9G4rPxQfK5-18" value="salary_periods" style="swimlane;childLayout=stackLayout;horizontal=1;startSize=50;horizontalStack=0;rounded=1;fontSize=14;fontStyle=0;strokeWidth=2;resizeParent=0;resizeLast=1;shadow=0;dashed=0;align=center;arcSize=4;whiteSpace=wrap;html=1;" parent="1" vertex="1">
          <mxGeometry x="40" y="470" width="160" height="90" as="geometry" />
        </mxCell>
        <mxCell id="-K2eB1AA9z9G4rPxQfK5-19" value="# * id&lt;div&gt;&amp;nbsp; &amp;nbsp;* period&lt;/div&gt;" style="align=left;strokeColor=none;fillColor=none;spacingLeft=4;spacingRight=4;fontSize=12;verticalAlign=top;resizable=0;rotatable=0;part=1;html=1;whiteSpace=wrap;" parent="-K2eB1AA9z9G4rPxQfK5-18" vertex="1">
          <mxGeometry y="50" width="160" height="40" as="geometry" />
        </mxCell>
        <mxCell id="-K2eB1AA9z9G4rPxQfK5-20" value="experience_levels" style="swimlane;childLayout=stackLayout;horizontal=1;startSize=50;horizontalStack=0;rounded=1;fontSize=14;fontStyle=0;strokeWidth=2;resizeParent=0;resizeLast=1;shadow=0;dashed=0;align=center;arcSize=4;whiteSpace=wrap;html=1;" parent="1" vertex="1">
          <mxGeometry x="40" y="690" width="160" height="90" as="geometry" />
        </mxCell>
        <mxCell id="-K2eB1AA9z9G4rPxQfK5-21" value="# * id&lt;div&gt;&amp;nbsp; &amp;nbsp;* level&lt;/div&gt;" style="align=left;strokeColor=none;fillColor=none;spacingLeft=4;spacingRight=4;fontSize=12;verticalAlign=top;resizable=0;rotatable=0;part=1;html=1;whiteSpace=wrap;" parent="-K2eB1AA9z9G4rPxQfK5-20" vertex="1">
          <mxGeometry y="50" width="160" height="40" as="geometry" />
        </mxCell>
        <mxCell id="-K2eB1AA9z9G4rPxQfK5-22" value="skills" style="swimlane;childLayout=stackLayout;horizontal=1;startSize=50;horizontalStack=0;rounded=1;fontSize=14;fontStyle=0;strokeWidth=2;resizeParent=0;resizeLast=1;shadow=0;dashed=0;align=center;arcSize=4;whiteSpace=wrap;html=1;" parent="1" vertex="1">
          <mxGeometry x="40" y="580" width="160" height="90" as="geometry" />
        </mxCell>
        <mxCell id="-K2eB1AA9z9G4rPxQfK5-23" value="# * id&lt;div&gt;&amp;nbsp; &amp;nbsp;* skill&lt;/div&gt;" style="align=left;strokeColor=none;fillColor=none;spacingLeft=4;spacingRight=4;fontSize=12;verticalAlign=top;resizable=0;rotatable=0;part=1;html=1;whiteSpace=wrap;" parent="-K2eB1AA9z9G4rPxQfK5-22" vertex="1">
          <mxGeometry y="50" width="160" height="40" as="geometry" />
        </mxCell>
        <mxCell id="-K2eB1AA9z9G4rPxQfK5-24" value="education_levels" style="swimlane;childLayout=stackLayout;horizontal=1;startSize=50;horizontalStack=0;rounded=1;fontSize=14;fontStyle=0;strokeWidth=2;resizeParent=0;resizeLast=1;shadow=0;dashed=0;align=center;arcSize=4;whiteSpace=wrap;html=1;" parent="1" vertex="1">
          <mxGeometry x="40" y="800" width="160" height="90" as="geometry" />
        </mxCell>
        <mxCell id="-K2eB1AA9z9G4rPxQfK5-25" value="# * id&lt;div&gt;&amp;nbsp; &amp;nbsp;* level&lt;span style=&quot;color: rgba(0, 0, 0, 0); font-family: monospace; font-size: 0px; text-wrap-mode: nowrap; background-color: transparent;&quot;&gt;%3CmxGraphModel%3E%3Croot%3E%3CmxCell%20id%3D%220%22%2F%3E%3CmxCell%20id%3D%221%22%20parent%3D%220%22%2F%3E%3CmxCell%20id%3D%222%22%20value%3D%22currencies%22%20style%3D%22swimlane%3BchildLayout%3DstackLayout%3Bhorizontal%3D1%3BstartSize%3D50%3BhorizontalStack%3D0%3Brounded%3D1%3BfontSize%3D14%3BfontStyle%3D0%3BstrokeWidth%3D2%3BresizeParent%3D0%3BresizeLast%3D1%3Bshadow%3D0%3Bdashed%3D0%3Balign%3Dcenter%3BarcSize%3D4%3BwhiteSpace%3Dwrap%3Bhtml%3D1%3B%22%20vertex%3D%221%22%20parent%3D%221%22%3E%3CmxGeometry%20x%3D%22220%22%20y%3D%22230%22%20width%3D%22160%22%20height%3D%2290%22%20as%3D%22geometry%22%2F%3E%3C%2FmxCell%3E%3CmxCell%20id%3D%223%22%20value%3D%22%23%20*%20id%26lt%3Bdiv%26gt%3B%26amp%3Bnbsp%3B%20%26amp%3Bnbsp%3B*%20currency%26lt%3B%2Fdiv%26gt%3B%22%20style%3D%22align%3Dleft%3BstrokeColor%3Dnone%3BfillColor%3Dnone%3BspacingLeft%3D4%3BspacingRight%3D4%3BfontSize%3D12%3BverticalAlign%3Dtop%3Bresizable%3D0%3Brotatable%3D0%3Bpart%3D1%3Bhtml%3D1%3BwhiteSpace%3Dwrap%3B%22%20vertex%3D%221%22%20parent%3D%222%22%3E%3CmxGeometry%20y%3D%2250%22%20width%3D%22160%22%20height%3D%2240%22%20as%3D%22geometry%22%2F%3E%3C%2FmxCell%3E%3C%2Froot%3E%3C%2FmxGraphModel%3E&lt;/span&gt;&lt;/div&gt;" style="align=left;strokeColor=none;fillColor=none;spacingLeft=4;spacingRight=4;fontSize=12;verticalAlign=top;resizable=0;rotatable=0;part=1;html=1;whiteSpace=wrap;" parent="-K2eB1AA9z9G4rPxQfK5-24" vertex="1">
          <mxGeometry y="50" width="160" height="40" as="geometry" />
        </mxCell>
        <mxCell id="-K2eB1AA9z9G4rPxQfK5-26" value="employment_types" style="swimlane;childLayout=stackLayout;horizontal=1;startSize=50;horizontalStack=0;rounded=1;fontSize=14;fontStyle=0;strokeWidth=2;resizeParent=0;resizeLast=1;shadow=0;dashed=0;align=center;arcSize=4;whiteSpace=wrap;html=1;" parent="1" vertex="1">
          <mxGeometry x="630" y="800" width="160" height="90" as="geometry" />
        </mxCell>
        <mxCell id="-K2eB1AA9z9G4rPxQfK5-27" value="# * id&lt;div&gt;&amp;nbsp; &amp;nbsp;* type&lt;/div&gt;" style="align=left;strokeColor=none;fillColor=none;spacingLeft=4;spacingRight=4;fontSize=12;verticalAlign=top;resizable=0;rotatable=0;part=1;html=1;whiteSpace=wrap;" parent="-K2eB1AA9z9G4rPxQfK5-26" vertex="1">
          <mxGeometry y="50" width="160" height="40" as="geometry" />
        </mxCell>
        <mxCell id="-K2eB1AA9z9G4rPxQfK5-28" value="benefits" style="swimlane;childLayout=stackLayout;horizontal=1;startSize=50;horizontalStack=0;rounded=1;fontSize=14;fontStyle=0;strokeWidth=2;resizeParent=0;resizeLast=1;shadow=0;dashed=0;align=center;arcSize=4;whiteSpace=wrap;html=1;" parent="1" vertex="1">
          <mxGeometry x="630" y="910" width="160" height="90" as="geometry" />
        </mxCell>
        <mxCell id="-K2eB1AA9z9G4rPxQfK5-29" value="# * id&lt;div&gt;&amp;nbsp; &amp;nbsp;* benefit&lt;/div&gt;" style="align=left;strokeColor=none;fillColor=none;spacingLeft=4;spacingRight=4;fontSize=12;verticalAlign=top;resizable=0;rotatable=0;part=1;html=1;whiteSpace=wrap;" parent="-K2eB1AA9z9G4rPxQfK5-28" vertex="1">
          <mxGeometry y="50" width="160" height="40" as="geometry" />
        </mxCell>
        <mxCell id="-K2eB1AA9z9G4rPxQfK5-30" value="languages" style="swimlane;childLayout=stackLayout;horizontal=1;startSize=50;horizontalStack=0;rounded=1;fontSize=14;fontStyle=0;strokeWidth=2;resizeParent=0;resizeLast=1;shadow=0;dashed=0;align=center;arcSize=4;whiteSpace=wrap;html=1;" parent="1" vertex="1">
          <mxGeometry x="40" y="910" width="160" height="90" as="geometry" />
        </mxCell>
        <mxCell id="-K2eB1AA9z9G4rPxQfK5-31" value="# * id&lt;div&gt;&amp;nbsp; &amp;nbsp;* language&lt;/div&gt;" style="align=left;strokeColor=none;fillColor=none;spacingLeft=4;spacingRight=4;fontSize=12;verticalAlign=top;resizable=0;rotatable=0;part=1;html=1;whiteSpace=wrap;" parent="-K2eB1AA9z9G4rPxQfK5-30" vertex="1">
          <mxGeometry y="50" width="160" height="40" as="geometry" />
        </mxCell>
        <mxCell id="-K2eB1AA9z9G4rPxQfK5-32" value="employment_schedules" style="swimlane;childLayout=stackLayout;horizontal=1;startSize=50;horizontalStack=0;rounded=1;fontSize=14;fontStyle=0;strokeWidth=2;resizeParent=0;resizeLast=1;shadow=0;dashed=0;align=center;arcSize=4;whiteSpace=wrap;html=1;" parent="1" vertex="1">
          <mxGeometry x="630" y="690" width="160" height="90" as="geometry" />
        </mxCell>
        <mxCell id="-K2eB1AA9z9G4rPxQfK5-33" value="# * id&lt;div&gt;&amp;nbsp; &amp;nbsp;* schedule&lt;/div&gt;" style="align=left;strokeColor=none;fillColor=none;spacingLeft=4;spacingRight=4;fontSize=12;verticalAlign=top;resizable=0;rotatable=0;part=1;html=1;whiteSpace=wrap;" parent="-K2eB1AA9z9G4rPxQfK5-32" vertex="1">
          <mxGeometry y="50" width="160" height="40" as="geometry" />
        </mxCell>
        <mxCell id="-K2eB1AA9z9G4rPxQfK5-34" value="location_details" style="swimlane;childLayout=stackLayout;horizontal=1;startSize=50;horizontalStack=0;rounded=1;fontSize=14;fontStyle=0;strokeWidth=2;resizeParent=0;resizeLast=1;shadow=0;dashed=0;align=center;arcSize=4;whiteSpace=wrap;html=1;" parent="1" vertex="1">
          <mxGeometry x="620" y="40" width="160" height="120" as="geometry" />
        </mxCell>
        <mxCell id="-K2eB1AA9z9G4rPxQfK5-35" value="# * id&lt;div&gt;&amp;nbsp; &amp;nbsp;o building_number&lt;/div&gt;&lt;div&gt;&lt;span style=&quot;background-color: transparent; color: light-dark(rgb(0, 0, 0), rgb(255, 255, 255));&quot;&gt;&amp;nbsp; &amp;nbsp;o latitude&lt;/span&gt;&lt;/div&gt;&lt;div&gt;&amp;nbsp; &amp;nbsp;o longitude&lt;/div&gt;&lt;div&gt;&lt;br&gt;&lt;/div&gt;" style="align=left;strokeColor=none;fillColor=none;spacingLeft=4;spacingRight=4;fontSize=12;verticalAlign=top;resizable=0;rotatable=0;part=1;html=1;whiteSpace=wrap;" parent="-K2eB1AA9z9G4rPxQfK5-34" vertex="1">
          <mxGeometry y="50" width="160" height="70" as="geometry" />
        </mxCell>
        <mxCell id="-K2eB1AA9z9G4rPxQfK5-42" value="" style="group" parent="1" vertex="1" connectable="0">
          <mxGeometry x="305" y="360" width="180" height="480" as="geometry" />
        </mxCell>
        <mxCell id="-K2eB1AA9z9G4rPxQfK5-36" value="offers" style="swimlane;childLayout=stackLayout;horizontal=1;startSize=50;horizontalStack=0;rounded=1;fontSize=14;fontStyle=0;strokeWidth=2;resizeParent=0;resizeLast=1;shadow=0;dashed=0;align=center;arcSize=4;whiteSpace=wrap;html=1;" parent="-K2eB1AA9z9G4rPxQfK5-42" vertex="1">
          <mxGeometry width="180" height="480" as="geometry" />
        </mxCell>
        <mxCell id="-K2eB1AA9z9G4rPxQfK5-37" value="# * id&lt;div&gt;&amp;nbsp; &amp;nbsp;* job_title&lt;/div&gt;&lt;div&gt;&amp;nbsp; &amp;nbsp;o description&lt;/div&gt;&lt;div&gt;&amp;nbsp; &amp;nbsp;o salary_from&lt;/div&gt;&lt;div&gt;&amp;nbsp; &amp;nbsp;o salary_to&lt;/div&gt;&lt;div&gt;&amp;nbsp; &amp;nbsp;o is_gross&lt;/div&gt;&lt;div&gt;&amp;nbsp; &amp;nbsp;o is_remote&lt;/div&gt;&lt;div&gt;&amp;nbsp; &amp;nbsp;o is_hybrid&lt;/div&gt;&lt;div&gt;&amp;nbsp; &amp;nbsp;o experience_years&lt;/div&gt;&lt;div&gt;&amp;nbsp; &amp;nbsp;* published&lt;/div&gt;&lt;div&gt;&amp;nbsp; &amp;nbsp;o expires&lt;/div&gt;&lt;div&gt;&amp;nbsp; &amp;nbsp;* is_urgent&lt;/div&gt;&lt;div&gt;&amp;nbsp; &amp;nbsp;* is_for_ukrainians&lt;/div&gt;" style="align=left;strokeColor=none;fillColor=none;spacingLeft=4;spacingRight=4;fontSize=12;verticalAlign=top;resizable=0;rotatable=0;part=1;html=1;whiteSpace=wrap;" parent="-K2eB1AA9z9G4rPxQfK5-36" vertex="1">
          <mxGeometry y="50" width="180" height="430" as="geometry" />
        </mxCell>
        <mxCell id="-K2eB1AA9z9G4rPxQfK5-38" value="external_offers" style="swimlane;childLayout=stackLayout;horizontal=1;startSize=50;horizontalStack=0;rounded=1;fontSize=14;fontStyle=0;strokeWidth=2;resizeParent=0;resizeLast=1;shadow=0;dashed=0;align=center;arcSize=4;whiteSpace=wrap;html=1;" parent="-K2eB1AA9z9G4rPxQfK5-42" vertex="1">
          <mxGeometry x="10" y="250" width="160" height="107.21" as="geometry" />
        </mxCell>
        <mxCell id="-K2eB1AA9z9G4rPxQfK5-39" value="# * id&lt;div&gt;&amp;nbsp; &amp;nbsp;* query_string&lt;/div&gt;&lt;div&gt;&amp;nbsp; &amp;nbsp;* offer_lifespan_expiration&lt;/div&gt;" style="align=left;strokeColor=none;fillColor=none;spacingLeft=4;spacingRight=4;fontSize=12;verticalAlign=top;resizable=0;rotatable=0;part=1;html=1;whiteSpace=wrap;" parent="-K2eB1AA9z9G4rPxQfK5-38" vertex="1">
          <mxGeometry y="50" width="160" height="57.209999999999994" as="geometry" />
        </mxCell>
        <mxCell id="-K2eB1AA9z9G4rPxQfK5-40" value="internal_offers" style="swimlane;childLayout=stackLayout;horizontal=1;startSize=50;horizontalStack=0;rounded=1;fontSize=14;fontStyle=0;strokeWidth=2;resizeParent=0;resizeLast=1;shadow=0;dashed=0;align=center;arcSize=4;whiteSpace=wrap;html=1;" parent="-K2eB1AA9z9G4rPxQfK5-42" vertex="1">
          <mxGeometry x="10" y="368.3720930232558" width="160" height="100.46511627906978" as="geometry" />
        </mxCell>
        <mxCell id="-K2eB1AA9z9G4rPxQfK5-41" value="# * id&lt;div&gt;&amp;nbsp; &amp;nbsp;#TODO&lt;/div&gt;" style="align=left;strokeColor=none;fillColor=none;spacingLeft=4;spacingRight=4;fontSize=12;verticalAlign=top;resizable=0;rotatable=0;part=1;html=1;whiteSpace=wrap;" parent="-K2eB1AA9z9G4rPxQfK5-40" vertex="1">
          <mxGeometry y="50" width="160" height="50.465116279069775" as="geometry" />
        </mxCell>
        <mxCell id="-K2eB1AA9z9G4rPxQfK5-43" value="" style="edgeStyle=elbowEdgeStyle;fontSize=12;html=1;endArrow=ERoneToMany;rounded=0;elbow=vertical;entryX=0.25;entryY=0;entryDx=0;entryDy=0;" parent="1" source="-K2eB1AA9z9G4rPxQfK5-11" target="-K2eB1AA9z9G4rPxQfK5-36" edge="1">
          <mxGeometry width="100" height="100" relative="1" as="geometry">
            <mxPoint x="500" y="480" as="sourcePoint" />
            <mxPoint x="340" y="280" as="targetPoint" />
            <Array as="points">
              <mxPoint x="240" y="300" />
            </Array>
          </mxGeometry>
        </mxCell>
        <mxCell id="-K2eB1AA9z9G4rPxQfK5-44" value="" style="edgeStyle=elbowEdgeStyle;fontSize=12;html=1;endArrow=ERoneToMany;rounded=0;elbow=vertical;exitX=0.5;exitY=1;exitDx=0;exitDy=0;entryX=0.5;entryY=0;entryDx=0;entryDy=0;" parent="1" source="-K2eB1AA9z9G4rPxQfK5-13" target="-K2eB1AA9z9G4rPxQfK5-36" edge="1">
          <mxGeometry width="100" height="100" relative="1" as="geometry">
            <mxPoint x="375" y="300" as="sourcePoint" />
            <mxPoint x="475" y="200" as="targetPoint" />
          </mxGeometry>
        </mxCell>
        <mxCell id="-K2eB1AA9z9G4rPxQfK5-45" value="" style="edgeStyle=elbowEdgeStyle;fontSize=12;html=1;endArrow=ERzeroToMany;rounded=0;exitX=1;exitY=0.5;exitDx=0;exitDy=0;elbow=vertical;entryX=0;entryY=0;entryDx=0;entryDy=0;endFill=0;" parent="1" target="-K2eB1AA9z9G4rPxQfK5-37" edge="1">
          <mxGeometry width="100" height="100" relative="1" as="geometry">
            <mxPoint x="200" y="430" as="sourcePoint" />
            <mxPoint x="305" y="435" as="targetPoint" />
            <Array as="points">
              <mxPoint x="280" y="410" />
            </Array>
          </mxGeometry>
        </mxCell>
        <mxCell id="-K2eB1AA9z9G4rPxQfK5-47" value="" style="edgeStyle=elbowEdgeStyle;fontSize=12;html=1;endArrow=ERzeroToMany;rounded=0;exitX=1;exitY=0;exitDx=0;exitDy=0;elbow=vertical;endFill=0;entryX=-0.007;entryY=0.22;entryDx=0;entryDy=0;entryPerimeter=0;" parent="1" source="-K2eB1AA9z9G4rPxQfK5-19" target="-K2eB1AA9z9G4rPxQfK5-37" edge="1">
          <mxGeometry width="100" height="100" relative="1" as="geometry">
            <mxPoint x="500" y="480" as="sourcePoint" />
            <mxPoint x="290" y="520" as="targetPoint" />
            <Array as="points">
              <mxPoint x="250" y="505" />
            </Array>
          </mxGeometry>
        </mxCell>
        <mxCell id="-K2eB1AA9z9G4rPxQfK5-48" value="" style="edgeStyle=orthogonalEdgeStyle;fontSize=12;html=1;endArrow=ERzeroToMany;rounded=0;elbow=vertical;entryX=0.75;entryY=0;entryDx=0;entryDy=0;endFill=0;exitX=0;exitY=0.5;exitDx=0;exitDy=0;" parent="1" source="-K2eB1AA9z9G4rPxQfK5-35" target="-K2eB1AA9z9G4rPxQfK5-36" edge="1">
          <mxGeometry width="100" height="100" relative="1" as="geometry">
            <mxPoint x="580" y="120" as="sourcePoint" />
            <mxPoint x="600" y="490" as="targetPoint" />
            <Array as="points">
              <mxPoint x="590" y="125" />
              <mxPoint x="590" y="300" />
              <mxPoint x="440" y="300" />
            </Array>
          </mxGeometry>
        </mxCell>
        <mxCell id="-K2eB1AA9z9G4rPxQfK5-50" value="" style="edgeStyle=elbowEdgeStyle;fontSize=12;html=1;endArrow=ERzeroToMany;startArrow=ERoneToMany;rounded=0;elbow=vertical;startFill=0;endFill=0;entryX=0;entryY=0.5;entryDx=0;entryDy=0;" parent="1" target="-K2eB1AA9z9G4rPxQfK5-36" edge="1">
          <mxGeometry width="100" height="100" relative="1" as="geometry">
            <mxPoint x="200" y="600" as="sourcePoint" />
            <mxPoint x="300" y="600" as="targetPoint" />
            <Array as="points">
              <mxPoint x="250" y="600" />
            </Array>
          </mxGeometry>
        </mxCell>
        <mxCell id="-K2eB1AA9z9G4rPxQfK5-51" value="" style="edgeStyle=elbowEdgeStyle;fontSize=12;html=1;endArrow=ERzeroToMany;startArrow=ERoneToMany;rounded=0;elbow=vertical;entryX=0;entryY=0.5;entryDx=0;entryDy=0;startFill=0;endFill=0;" parent="1" edge="1">
          <mxGeometry width="100" height="100" relative="1" as="geometry">
            <mxPoint x="200" y="720" as="sourcePoint" />
            <mxPoint x="305" y="720" as="targetPoint" />
            <Array as="points">
              <mxPoint x="250" y="720" />
            </Array>
          </mxGeometry>
        </mxCell>
        <mxCell id="-K2eB1AA9z9G4rPxQfK5-52" value="" style="edgeStyle=elbowEdgeStyle;fontSize=12;html=1;endArrow=ERzeroToMany;startArrow=ERoneToMany;rounded=0;elbow=vertical;entryX=0;entryY=1;entryDx=0;entryDy=0;startFill=0;endFill=0;" parent="1" target="-K2eB1AA9z9G4rPxQfK5-37" edge="1">
          <mxGeometry width="100" height="100" relative="1" as="geometry">
            <mxPoint x="200" y="860" as="sourcePoint" />
            <mxPoint x="305" y="850" as="targetPoint" />
            <Array as="points">
              <mxPoint x="350" y="860" />
            </Array>
          </mxGeometry>
        </mxCell>
        <mxCell id="-K2eB1AA9z9G4rPxQfK5-53" value="" style="edgeStyle=elbowEdgeStyle;fontSize=12;html=1;endArrow=ERzeroToMany;startArrow=ERoneToMany;rounded=0;elbow=vertical;entryX=0.25;entryY=1;entryDx=0;entryDy=0;startFill=0;endFill=0;" parent="1" target="-K2eB1AA9z9G4rPxQfK5-37" edge="1">
          <mxGeometry width="100" height="100" relative="1" as="geometry">
            <mxPoint x="200" y="960" as="sourcePoint" />
            <mxPoint x="350" y="900" as="targetPoint" />
            <Array as="points">
              <mxPoint x="250" y="960" />
            </Array>
          </mxGeometry>
        </mxCell>
        <mxCell id="-K2eB1AA9z9G4rPxQfK5-56" value="" style="edgeStyle=elbowEdgeStyle;fontSize=12;html=1;endArrow=ERoneToMany;startArrow=ERoneToMany;rounded=0;elbow=vertical;exitX=1;exitY=1;exitDx=0;exitDy=0;startFill=0;endFill=0;" parent="1" source="-K2eB1AA9z9G4rPxQfK5-37" edge="1">
          <mxGeometry width="100" height="100" relative="1" as="geometry">
            <mxPoint x="520" y="849.9999999999998" as="sourcePoint" />
            <mxPoint x="630" y="860" as="targetPoint" />
            <Array as="points">
              <mxPoint x="490" y="860" />
            </Array>
          </mxGeometry>
        </mxCell>
        <mxCell id="-K2eB1AA9z9G4rPxQfK5-58" value="" style="edgeStyle=elbowEdgeStyle;fontSize=12;html=1;endArrow=ERoneToMany;startArrow=ERzeroToMany;rounded=0;elbow=vertical;exitX=0.75;exitY=1;exitDx=0;exitDy=0;startFill=0;endFill=0;" parent="1" source="-K2eB1AA9z9G4rPxQfK5-37" edge="1">
          <mxGeometry width="100" height="100" relative="1" as="geometry">
            <mxPoint x="520.0000000000001" y="603.4199999999998" as="sourcePoint" />
            <mxPoint x="630" y="960" as="targetPoint" />
            <Array as="points">
              <mxPoint x="530" y="960" />
            </Array>
          </mxGeometry>
        </mxCell>
        <mxCell id="-K2eB1AA9z9G4rPxQfK5-61" value="" style="edgeStyle=elbowEdgeStyle;fontSize=12;html=1;endArrow=ERoneToMany;startArrow=ERoneToMany;rounded=0;elbow=vertical;startFill=0;endFill=0;entryX=0;entryY=0;entryDx=0;entryDy=0;" parent="1" target="-K2eB1AA9z9G4rPxQfK5-33" edge="1">
          <mxGeometry width="100" height="100" relative="1" as="geometry">
            <mxPoint x="488" y="740" as="sourcePoint" />
            <mxPoint x="610" y="750" as="targetPoint" />
            <Array as="points">
              <mxPoint x="550" y="740" />
            </Array>
          </mxGeometry>
        </mxCell>
        <mxCell id="-K2eB1AA9z9G4rPxQfK5-62" value="cities" style="swimlane;childLayout=stackLayout;horizontal=1;startSize=50;horizontalStack=0;rounded=1;fontSize=14;fontStyle=0;strokeWidth=2;resizeParent=0;resizeLast=1;shadow=0;dashed=0;align=center;arcSize=4;whiteSpace=wrap;html=1;" parent="1" vertex="1">
          <mxGeometry x="540" y="360" width="160" height="90" as="geometry" />
        </mxCell>
        <mxCell id="-K2eB1AA9z9G4rPxQfK5-63" value="# * id&lt;div&gt;&amp;nbsp; &amp;nbsp;* city&lt;/div&gt;" style="align=left;strokeColor=none;fillColor=none;spacingLeft=4;spacingRight=4;fontSize=12;verticalAlign=top;resizable=0;rotatable=0;part=1;html=1;whiteSpace=wrap;" parent="-K2eB1AA9z9G4rPxQfK5-62" vertex="1">
          <mxGeometry y="50" width="160" height="40" as="geometry" />
        </mxCell>
        <mxCell id="-K2eB1AA9z9G4rPxQfK5-64" value="streets" style="swimlane;childLayout=stackLayout;horizontal=1;startSize=50;horizontalStack=0;rounded=1;fontSize=14;fontStyle=0;strokeWidth=2;resizeParent=0;resizeLast=1;shadow=0;dashed=0;align=center;arcSize=4;whiteSpace=wrap;html=1;" parent="1" vertex="1">
          <mxGeometry x="630" y="470" width="160" height="90" as="geometry" />
        </mxCell>
        <mxCell id="-K2eB1AA9z9G4rPxQfK5-65" value="# * id&lt;div&gt;&amp;nbsp; &amp;nbsp;* street&lt;/div&gt;" style="align=left;strokeColor=none;fillColor=none;spacingLeft=4;spacingRight=4;fontSize=12;verticalAlign=top;resizable=0;rotatable=0;part=1;html=1;whiteSpace=wrap;" parent="-K2eB1AA9z9G4rPxQfK5-64" vertex="1">
          <mxGeometry y="50" width="160" height="40" as="geometry" />
        </mxCell>
        <mxCell id="-K2eB1AA9z9G4rPxQfK5-66" value="postal_codes" style="swimlane;childLayout=stackLayout;horizontal=1;startSize=50;horizontalStack=0;rounded=1;fontSize=14;fontStyle=0;strokeWidth=2;resizeParent=0;resizeLast=1;shadow=0;dashed=0;align=center;arcSize=4;whiteSpace=wrap;html=1;" parent="1" vertex="1">
          <mxGeometry x="630" y="580" width="160" height="90" as="geometry" />
        </mxCell>
        <mxCell id="-K2eB1AA9z9G4rPxQfK5-67" value="# * id&lt;div&gt;&amp;nbsp; &amp;nbsp;* postal_code&lt;/div&gt;" style="align=left;strokeColor=none;fillColor=none;spacingLeft=4;spacingRight=4;fontSize=12;verticalAlign=top;resizable=0;rotatable=0;part=1;html=1;whiteSpace=wrap;" parent="-K2eB1AA9z9G4rPxQfK5-66" vertex="1">
          <mxGeometry y="50" width="160" height="40" as="geometry" />
        </mxCell>
        <mxCell id="-K2eB1AA9z9G4rPxQfK5-68" value="" style="edgeStyle=elbowEdgeStyle;fontSize=12;html=1;endArrow=ERzeroToMany;endFill=1;rounded=0;elbow=vertical;exitX=0.75;exitY=0;exitDx=0;exitDy=0;entryX=0.25;entryY=1;entryDx=0;entryDy=0;" parent="1" source="-K2eB1AA9z9G4rPxQfK5-62" target="-K2eB1AA9z9G4rPxQfK5-35" edge="1">
          <mxGeometry width="100" height="100" relative="1" as="geometry">
            <mxPoint x="730" y="320" as="sourcePoint" />
            <mxPoint x="810" y="230" as="targetPoint" />
          </mxGeometry>
        </mxCell>
        <mxCell id="-K2eB1AA9z9G4rPxQfK5-71" value="" style="edgeStyle=orthogonalEdgeStyle;fontSize=12;html=1;endArrow=ERzeroToMany;endFill=1;rounded=0;elbow=horizontal;exitX=0.75;exitY=0;exitDx=0;exitDy=0;entryX=0.804;entryY=1.005;entryDx=0;entryDy=0;entryPerimeter=0;" parent="1" edge="1">
          <mxGeometry width="100" height="100" relative="1" as="geometry">
            <mxPoint x="751.36" y="469.9999999999998" as="sourcePoint" />
            <mxPoint x="750.0000000000001" y="160.35000000000014" as="targetPoint" />
            <Array as="points">
              <mxPoint x="750" y="470" />
            </Array>
          </mxGeometry>
        </mxCell>
        <mxCell id="-K2eB1AA9z9G4rPxQfK5-72" value="" style="edgeStyle=orthogonalEdgeStyle;fontSize=12;html=1;endArrow=ERzeroToMany;endFill=1;rounded=0;elbow=vertical;exitX=1;exitY=0.5;exitDx=0;exitDy=0;entryX=1;entryY=0.5;entryDx=0;entryDy=0;" parent="1" source="-K2eB1AA9z9G4rPxQfK5-66" target="-K2eB1AA9z9G4rPxQfK5-35" edge="1">
          <mxGeometry width="100" height="100" relative="1" as="geometry">
            <mxPoint x="760" y="570" as="sourcePoint" />
            <mxPoint x="760" y="260" as="targetPoint" />
            <Array as="points">
              <mxPoint x="810" y="625" />
              <mxPoint x="810" y="125" />
            </Array>
          </mxGeometry>
        </mxCell>
        <mxCell id="QkZVk7pYZjU9lQ2U9qkY-1" value="leading_categories" style="swimlane;childLayout=stackLayout;horizontal=1;startSize=50;horizontalStack=0;rounded=1;fontSize=14;fontStyle=0;strokeWidth=2;resizeParent=0;resizeLast=1;shadow=0;dashed=0;align=center;arcSize=4;whiteSpace=wrap;html=1;" vertex="1" parent="1">
          <mxGeometry x="485" y="1020" width="160" height="90" as="geometry" />
        </mxCell>
        <mxCell id="QkZVk7pYZjU9lQ2U9qkY-2" value="# * id&lt;br&gt;&amp;nbsp; &amp;nbsp;* leading_category" style="align=left;strokeColor=none;fillColor=none;spacingLeft=4;spacingRight=4;fontSize=12;verticalAlign=top;resizable=0;rotatable=0;part=1;html=1;whiteSpace=wrap;" vertex="1" parent="QkZVk7pYZjU9lQ2U9qkY-1">
          <mxGeometry y="50" width="160" height="40" as="geometry" />
        </mxCell>
        <mxCell id="QkZVk7pYZjU9lQ2U9qkY-3" value="sub_categories" style="swimlane;childLayout=stackLayout;horizontal=1;startSize=50;horizontalStack=0;rounded=1;fontSize=14;fontStyle=0;strokeWidth=2;resizeParent=0;resizeLast=1;shadow=0;dashed=0;align=center;arcSize=4;whiteSpace=wrap;html=1;" vertex="1" parent="1">
          <mxGeometry x="145" y="1020" width="160" height="90" as="geometry" />
        </mxCell>
        <mxCell id="QkZVk7pYZjU9lQ2U9qkY-4" value="# * id&lt;br&gt;&amp;nbsp; &amp;nbsp;* sub_category" style="align=left;strokeColor=none;fillColor=none;spacingLeft=4;spacingRight=4;fontSize=12;verticalAlign=top;resizable=0;rotatable=0;part=1;html=1;whiteSpace=wrap;" vertex="1" parent="QkZVk7pYZjU9lQ2U9qkY-3">
          <mxGeometry y="50" width="160" height="40" as="geometry" />
        </mxCell>
        <mxCell id="QkZVk7pYZjU9lQ2U9qkY-5" style="edgeStyle=orthogonalEdgeStyle;rounded=0;orthogonalLoop=1;jettySize=auto;html=1;exitX=0;exitY=0;exitDx=0;exitDy=0;entryX=0.594;entryY=1;entryDx=0;entryDy=0;entryPerimeter=0;endArrow=ERoneToMany;endFill=0;" edge="1" parent="1" source="QkZVk7pYZjU9lQ2U9qkY-2" target="-K2eB1AA9z9G4rPxQfK5-37">
          <mxGeometry relative="1" as="geometry">
            <Array as="points">
              <mxPoint x="485" y="1080" />
              <mxPoint x="412" y="1080" />
            </Array>
          </mxGeometry>
        </mxCell>
        <mxCell id="QkZVk7pYZjU9lQ2U9qkY-6" style="edgeStyle=orthogonalEdgeStyle;rounded=0;orthogonalLoop=1;jettySize=auto;html=1;exitX=1;exitY=0.25;exitDx=0;exitDy=0;entryX=0.4;entryY=1.002;entryDx=0;entryDy=0;entryPerimeter=0;endArrow=ERzeroToMany;endFill=0;startArrow=ERoneToMany;startFill=0;" edge="1" parent="1" source="QkZVk7pYZjU9lQ2U9qkY-4" target="-K2eB1AA9z9G4rPxQfK5-37">
          <mxGeometry relative="1" as="geometry" />
        </mxCell>
      </root>
    </mxGraphModel>
  </diagram>
</mxfile>
